<svg width="736" height="420" viewBox="0 0 736 420" fill="none" xmlns="http://www.w3.org/2000/svg">
<rect width="736" height="420" fill="#D2FC7E"/>
<path d="M270.656 145.36C267.656 145.36 265.388 144.604 263.852 143.092C262.316 141.556 261.548 139.348 261.548 136.468C261.548 133.468 262.388 131.236 264.068 129.772C265.772 128.308 268.04 127.576 270.872 127.576C272.048 127.576 273.032 127.66 273.824 127.828C274.64 127.996 275.42 128.26 276.164 128.62V131.536C274.916 130.912 273.404 130.6 271.628 130.6C269.66 130.6 268.148 131.044 267.092 131.932C266.036 132.796 265.508 134.308 265.508 136.468C265.508 138.508 265.976 140.008 266.912 140.968C267.848 141.904 269.396 142.372 271.556 142.372C273.26 142.372 274.808 142.048 276.2 141.4V144.388C275.408 144.7 274.556 144.94 273.644 145.108C272.756 145.276 271.76 145.36 270.656 145.36ZM287.491 145.36C284.419 145.36 282.163 144.592 280.723 143.056C279.307 141.52 278.599 139.324 278.599 136.468C278.599 133.612 279.319 131.416 280.759 129.88C282.199 128.344 284.443 127.576 287.491 127.576C290.563 127.576 292.819 128.344 294.259 129.88C295.699 131.416 296.419 133.612 296.419 136.468C296.419 139.324 295.699 141.52 294.259 143.056C292.843 144.592 290.587 145.36 287.491 145.36ZM287.491 142.048C289.291 142.048 290.563 141.616 291.307 140.752C292.075 139.864 292.459 138.436 292.459 136.468C292.459 134.5 292.075 133.084 291.307 132.22C290.563 131.356 289.291 130.924 287.491 130.924C285.715 130.924 284.443 131.356 283.675 132.22C282.931 133.084 282.559 134.5 282.559 136.468C282.559 138.436 282.931 139.864 283.675 140.752C284.443 141.616 285.715 142.048 287.491 142.048ZM300.237 145V127.936H303.837L304.017 129.736C304.857 129.064 305.781 128.536 306.789 128.152C307.797 127.768 308.877 127.576 310.029 127.576C311.253 127.576 312.201 127.78 312.873 128.188C313.569 128.572 314.097 129.112 314.457 129.808C315.249 129.16 316.161 128.632 317.193 128.224C318.225 127.792 319.461 127.576 320.901 127.576C322.869 127.576 324.321 128.08 325.257 129.088C326.193 130.096 326.661 131.644 326.661 133.732V145H322.809V134.128C322.809 132.808 322.533 131.884 321.981 131.356C321.429 130.828 320.529 130.564 319.281 130.564C318.465 130.564 317.685 130.708 316.941 130.996C316.221 131.284 315.597 131.716 315.069 132.292C315.141 132.556 315.189 132.832 315.213 133.12C315.237 133.408 315.249 133.72 315.249 134.056V145H311.613V134.164C311.613 132.916 311.397 132.004 310.965 131.428C310.533 130.852 309.717 130.564 308.517 130.564C307.677 130.564 306.873 130.768 306.105 131.176C305.361 131.56 304.689 132.028 304.089 132.58V145H300.237ZM332.509 124.372V121.132H336.793V124.372H332.509ZM332.833 145V130.924H330.241L330.601 127.936H336.757V145H332.833ZM341.334 145V127.936H344.934L345.114 129.736C345.882 129.136 346.794 128.632 347.85 128.224C348.93 127.792 350.118 127.576 351.414 127.576C353.622 127.576 355.23 128.092 356.238 129.124C357.246 130.156 357.75 131.764 357.75 133.948V145H353.862V134.128C353.862 132.808 353.586 131.884 353.034 131.356C352.506 130.828 351.498 130.564 350.01 130.564C349.122 130.564 348.246 130.744 347.382 131.104C346.542 131.464 345.834 131.932 345.258 132.508V145H341.334ZM369.059 151.336C367.787 151.336 366.515 151.252 365.243 151.084C363.971 150.94 362.891 150.712 362.003 150.4V147.376C362.963 147.688 364.067 147.928 365.315 148.096C366.563 148.264 367.751 148.348 368.879 148.348C370.607 148.348 371.867 148.252 372.659 148.06C373.451 147.868 373.847 147.436 373.847 146.764C373.847 146.26 373.655 145.9 373.271 145.684C372.887 145.492 372.155 145.396 371.075 145.396H366.467C363.371 145.396 361.823 144.304 361.823 142.12C361.823 141.424 362.027 140.776 362.435 140.176C362.843 139.576 363.491 139.12 364.379 138.808C363.395 138.328 362.663 137.668 362.183 136.828C361.727 135.988 361.499 134.98 361.499 133.804C361.499 131.62 362.147 130.036 363.443 129.052C364.763 128.068 366.731 127.576 369.347 127.576C369.899 127.576 370.475 127.624 371.075 127.72C371.675 127.792 372.143 127.864 372.479 127.936H378.743L378.635 130.492H375.755C376.211 130.876 376.547 131.356 376.763 131.932C376.979 132.508 377.087 133.132 377.087 133.804C377.087 135.628 376.535 137.068 375.431 138.124C374.327 139.156 372.659 139.672 370.427 139.672C370.043 139.672 369.683 139.66 369.347 139.636C369.035 139.588 368.687 139.54 368.303 139.492C367.583 139.564 366.935 139.756 366.359 140.068C365.783 140.38 365.495 140.8 365.495 141.328C365.495 141.688 365.639 141.952 365.927 142.12C366.215 142.264 366.695 142.336 367.367 142.336H372.155C373.859 142.336 375.167 142.708 376.079 143.452C377.015 144.172 377.483 145.228 377.483 146.62C377.483 148.3 376.751 149.5 375.287 150.22C373.847 150.964 371.771 151.336 369.059 151.336ZM369.347 137.188C370.907 137.188 371.987 136.924 372.587 136.396C373.211 135.868 373.523 134.968 373.523 133.696C373.523 132.424 373.211 131.5 372.587 130.924C371.987 130.348 370.907 130.06 369.347 130.06C367.883 130.06 366.815 130.336 366.143 130.888C365.471 131.44 365.135 132.376 365.135 133.696C365.135 134.92 365.447 135.808 366.071 136.36C366.719 136.912 367.811 137.188 369.347 137.188ZM396.065 145.36C394.889 145.36 393.761 145.276 392.681 145.108C391.625 144.94 390.749 144.736 390.053 144.496V141.184C390.869 141.496 391.769 141.736 392.753 141.904C393.737 142.072 394.673 142.156 395.561 142.156C396.905 142.156 397.865 142.036 398.441 141.796C399.017 141.556 399.305 141.088 399.305 140.392C399.305 139.888 399.125 139.492 398.765 139.204C398.429 138.916 397.913 138.652 397.217 138.412C396.545 138.172 395.681 137.884 394.625 137.548C393.617 137.212 392.741 136.852 391.997 136.468C391.253 136.06 390.677 135.544 390.269 134.92C389.861 134.296 389.657 133.48 389.657 132.472C389.657 130.912 390.221 129.712 391.349 128.872C392.477 128.008 394.289 127.576 396.785 127.576C397.769 127.576 398.705 127.648 399.593 127.792C400.481 127.936 401.237 128.116 401.861 128.332V131.608C401.189 131.344 400.445 131.14 399.629 130.996C398.837 130.852 398.093 130.78 397.397 130.78C396.149 130.78 395.201 130.888 394.553 131.104C393.929 131.32 393.617 131.752 393.617 132.4C393.617 133.072 393.941 133.552 394.589 133.84C395.261 134.104 396.329 134.476 397.793 134.956C399.137 135.364 400.205 135.796 400.997 136.252C401.789 136.708 402.353 137.26 402.689 137.908C403.049 138.532 403.229 139.348 403.229 140.356C403.229 142.036 402.617 143.296 401.393 144.136C400.169 144.952 398.393 145.36 396.065 145.36ZM414.721 145.36C411.649 145.36 409.393 144.592 407.953 143.056C406.537 141.52 405.829 139.324 405.829 136.468C405.829 133.612 406.549 131.416 407.989 129.88C409.429 128.344 411.673 127.576 414.721 127.576C417.793 127.576 420.049 128.344 421.489 129.88C422.929 131.416 423.649 133.612 423.649 136.468C423.649 139.324 422.929 141.52 421.489 143.056C420.073 144.592 417.817 145.36 414.721 145.36ZM414.721 142.048C416.521 142.048 417.793 141.616 418.537 140.752C419.305 139.864 419.689 138.436 419.689 136.468C419.689 134.5 419.305 133.084 418.537 132.22C417.793 131.356 416.521 130.924 414.721 130.924C412.945 130.924 411.673 131.356 410.905 132.22C410.161 133.084 409.789 134.5 409.789 136.468C409.789 138.436 410.161 139.864 410.905 140.752C411.673 141.616 412.945 142.048 414.721 142.048ZM435.639 145.36C432.567 145.36 430.311 144.592 428.871 143.056C427.455 141.52 426.747 139.324 426.747 136.468C426.747 133.612 427.467 131.416 428.907 129.88C430.347 128.344 432.591 127.576 435.639 127.576C438.711 127.576 440.967 128.344 442.407 129.88C443.847 131.416 444.567 133.612 444.567 136.468C444.567 139.324 443.847 141.52 442.407 143.056C440.991 144.592 438.735 145.36 435.639 145.36ZM435.639 142.048C437.439 142.048 438.711 141.616 439.455 140.752C440.223 139.864 440.607 138.436 440.607 136.468C440.607 134.5 440.223 133.084 439.455 132.22C438.711 131.356 437.439 130.924 435.639 130.924C433.863 130.924 432.591 131.356 431.823 132.22C431.079 133.084 430.707 134.5 430.707 136.468C430.707 138.436 431.079 139.864 431.823 140.752C432.591 141.616 433.863 142.048 435.639 142.048ZM448.385 145V127.936H451.985L452.165 129.736C452.933 129.136 453.845 128.632 454.901 128.224C455.981 127.792 457.169 127.576 458.465 127.576C460.673 127.576 462.281 128.092 463.289 129.124C464.297 130.156 464.801 131.764 464.801 133.948V145H460.913V134.128C460.913 132.808 460.637 131.884 460.085 131.356C459.557 130.828 458.549 130.564 457.061 130.564C456.173 130.564 455.297 130.744 454.433 131.104C453.593 131.464 452.885 131.932 452.309 132.508V145H448.385ZM468.838 139.204L468.622 127.612V121.816H472.546V127.612L472.33 139.204H468.838ZM468.478 145V142.048H472.654V145H468.478Z" fill="black"/>
<path d="M289.365 276.41C282.503 276.41 276.205 275.188 270.471 272.744C264.737 270.206 260.037 266.587 256.371 261.887L266.664 250.889C268.826 254.461 271.834 257.328 275.688 259.49C279.636 261.652 284.054 262.733 288.942 262.733C292.326 262.733 295.099 262.122 297.261 260.9C299.517 259.584 300.645 257.798 300.645 255.542C300.645 253.944 300.128 252.581 299.094 251.453C298.06 250.325 295.992 249.432 292.89 248.774L281.328 246.377C273.244 244.591 267.51 242.006 264.126 238.622C260.742 235.238 259.05 230.82 259.05 225.368C259.05 221.514 260.178 217.942 262.434 214.652C264.784 211.268 268.215 208.495 272.727 206.333C277.333 204.171 282.973 203.09 289.647 203.09C296.603 203.09 302.619 204.265 307.695 206.615C312.865 208.965 316.86 212.255 319.68 216.485L309.387 227.06C307.413 223.676 304.64 221.138 301.068 219.446C297.59 217.66 294.065 216.767 290.493 216.767C287.861 216.767 285.652 217.096 283.866 217.754C282.08 218.318 280.717 219.164 279.777 220.292C278.837 221.326 278.367 222.595 278.367 224.099C278.367 225.697 279.025 227.107 280.341 228.329C281.657 229.551 283.913 230.491 287.109 231.149L301.068 233.969C307.93 235.379 312.818 237.729 315.732 241.019C318.74 244.309 320.244 248.304 320.244 253.004C320.244 259.772 317.612 265.365 312.348 269.783C307.084 274.201 299.423 276.41 289.365 276.41ZM335.265 304.61V204.5H352.749L353.877 227.483L351.48 224.945C352.702 218.553 355.522 213.336 359.94 209.294C364.452 205.158 369.998 203.09 376.578 203.09C382.312 203.09 387.341 204.547 391.665 207.461C395.989 210.281 399.42 214.417 401.958 219.869C404.496 225.321 405.765 231.901 405.765 239.609C405.765 247.317 404.449 253.944 401.817 259.49C399.279 264.942 395.801 269.125 391.383 272.039C386.965 274.953 381.936 276.41 376.296 276.41C370.186 276.41 365.11 274.624 361.068 271.052C357.026 267.48 354.253 262.968 352.749 257.516L354.723 254.555V304.61H335.265ZM370.374 261.605C375.262 261.605 379.116 259.772 381.936 256.106C384.756 252.346 386.166 246.894 386.166 239.75C386.166 232.606 384.756 227.201 381.936 223.535C379.21 219.775 375.45 217.895 370.656 217.895C367.46 217.895 364.64 218.788 362.196 220.574C359.846 222.266 358.013 224.757 356.697 228.047C355.381 231.243 354.723 235.144 354.723 239.75C354.723 244.262 355.334 248.163 356.556 251.453C357.872 254.649 359.658 257.14 361.914 258.926C364.264 260.712 367.084 261.605 370.374 261.605ZM461.208 229.88C461.208 225.932 460.127 222.83 457.965 220.574C455.897 218.224 453.03 217.049 449.364 217.049C445.792 217.049 442.737 217.942 440.199 219.728C437.661 221.514 435.828 224.522 434.7 228.752L418.344 223.817C419.848 217.519 423.279 212.49 428.637 208.73C433.995 204.97 441.233 203.09 450.351 203.09C456.555 203.09 461.913 204.077 466.425 206.051C470.937 207.931 474.415 210.798 476.859 214.652C479.397 218.506 480.666 223.3 480.666 229.034V257.657C480.666 261.323 482.311 263.156 485.601 263.156C486.353 263.156 487.105 263.109 487.857 263.015C488.703 262.921 489.408 262.78 489.972 262.592L488.844 274.436C487.716 275 486.4 275.423 484.896 275.705C483.392 275.987 481.653 276.128 479.679 276.128C476.483 276.128 473.569 275.611 470.937 274.577C468.399 273.449 466.378 271.757 464.874 269.501C463.464 267.151 462.759 264.19 462.759 260.618V259.49L465.438 258.926C465.062 262.78 463.652 266.023 461.208 268.655C458.764 271.287 455.756 273.261 452.184 274.577C448.612 275.799 444.852 276.41 440.904 276.41C434.136 276.41 428.59 274.765 424.266 271.475C420.036 268.185 417.921 263.391 417.921 257.093C417.921 252.111 419.472 247.928 422.574 244.544C425.676 241.16 430.423 238.81 436.815 237.494L463.323 231.854V243.275L447.108 246.659C443.912 247.317 441.468 248.304 439.776 249.62C438.084 250.936 437.238 252.863 437.238 255.401C437.238 257.845 438.084 259.725 439.776 261.041C441.562 262.357 443.818 263.015 446.544 263.015C448.424 263.015 450.257 262.78 452.043 262.31C453.829 261.746 455.38 260.9 456.696 259.772C458.106 258.55 459.187 257.093 459.939 255.401C460.785 253.615 461.208 251.5 461.208 249.056V229.88ZM565.917 204.5L538.704 278.948C536.448 285.246 533.957 290.322 531.231 294.176C528.599 298.03 525.403 300.85 521.643 302.636C517.977 304.422 513.559 305.315 508.389 305.315C504.723 305.315 501.386 304.892 498.378 304.046C495.37 303.2 492.738 302.025 490.482 300.521L494.712 286.703C496.31 288.113 498.049 289.1 499.929 289.664C501.903 290.228 504.159 290.51 506.697 290.51C509.799 290.51 512.196 289.852 513.888 288.536C515.58 287.22 516.99 285.058 518.118 282.05L520.515 275.987L512.76 257.516L491.751 204.5H513.324L526.155 247.223L529.68 261.041L533.769 246.377L546.318 204.5H565.917ZM647.289 204.5L615.282 238.763L611.475 240.314L591.03 262.874L590.889 242.288L625.152 204.5H647.289ZM595.965 173.762V275H576.507V173.762H595.965ZM617.961 226.919L648.84 275H626.985L604.707 238.34L617.961 226.919Z" fill="black"/>
<path d="M151 292.033L151 201.967L229 247L151 292.033Z" stroke="black" stroke-width="7"/>
<path d="M97 292.033L97 201.967L175 247L97 292.033Z" fill="#D2FC7E" stroke="black" stroke-width="7"/>
</svg>
