<svg width="736" height="420" viewBox="0 0 736 420" fill="none" xmlns="http://www.w3.org/2000/svg">
<rect width="736" height="420" fill="#D2FC7E"/>
<path d="M270.656 121.36C267.656 121.36 265.388 120.604 263.852 119.092C262.316 117.556 261.548 115.348 261.548 112.468C261.548 109.468 262.388 107.236 264.068 105.772C265.772 104.308 268.04 103.576 270.872 103.576C272.048 103.576 273.032 103.66 273.824 103.828C274.64 103.996 275.42 104.26 276.164 104.62V107.536C274.916 106.912 273.404 106.6 271.628 106.6C269.66 106.6 268.148 107.044 267.092 107.932C266.036 108.796 265.508 110.308 265.508 112.468C265.508 114.508 265.976 116.008 266.912 116.968C267.848 117.904 269.396 118.372 271.556 118.372C273.26 118.372 274.808 118.048 276.2 117.4V120.388C275.408 120.7 274.556 120.94 273.644 121.108C272.756 121.276 271.76 121.36 270.656 121.36ZM287.491 121.36C284.419 121.36 282.163 120.592 280.723 119.056C279.307 117.52 278.599 115.324 278.599 112.468C278.599 109.612 279.319 107.416 280.759 105.88C282.199 104.344 284.443 103.576 287.491 103.576C290.563 103.576 292.819 104.344 294.259 105.88C295.699 107.416 296.419 109.612 296.419 112.468C296.419 115.324 295.699 117.52 294.259 119.056C292.843 120.592 290.587 121.36 287.491 121.36ZM287.491 118.048C289.291 118.048 290.563 117.616 291.307 116.752C292.075 115.864 292.459 114.436 292.459 112.468C292.459 110.5 292.075 109.084 291.307 108.22C290.563 107.356 289.291 106.924 287.491 106.924C285.715 106.924 284.443 107.356 283.675 108.22C282.931 109.084 282.559 110.5 282.559 112.468C282.559 114.436 282.931 115.864 283.675 116.752C284.443 117.616 285.715 118.048 287.491 118.048ZM300.237 121V103.936H303.837L304.017 105.736C304.857 105.064 305.781 104.536 306.789 104.152C307.797 103.768 308.877 103.576 310.029 103.576C311.253 103.576 312.201 103.78 312.873 104.188C313.569 104.572 314.097 105.112 314.457 105.808C315.249 105.16 316.161 104.632 317.193 104.224C318.225 103.792 319.461 103.576 320.901 103.576C322.869 103.576 324.321 104.08 325.257 105.088C326.193 106.096 326.661 107.644 326.661 109.732V121H322.809V110.128C322.809 108.808 322.533 107.884 321.981 107.356C321.429 106.828 320.529 106.564 319.281 106.564C318.465 106.564 317.685 106.708 316.941 106.996C316.221 107.284 315.597 107.716 315.069 108.292C315.141 108.556 315.189 108.832 315.213 109.12C315.237 109.408 315.249 109.72 315.249 110.056V121H311.613V110.164C311.613 108.916 311.397 108.004 310.965 107.428C310.533 106.852 309.717 106.564 308.517 106.564C307.677 106.564 306.873 106.768 306.105 107.176C305.361 107.56 304.689 108.028 304.089 108.58V121H300.237ZM332.509 100.372V97.132H336.793V100.372H332.509ZM332.833 121V106.924H330.241L330.601 103.936H336.757V121H332.833ZM341.334 121V103.936H344.934L345.114 105.736C345.882 105.136 346.794 104.632 347.85 104.224C348.93 103.792 350.118 103.576 351.414 103.576C353.622 103.576 355.23 104.092 356.238 105.124C357.246 106.156 357.75 107.764 357.75 109.948V121H353.862V110.128C353.862 108.808 353.586 107.884 353.034 107.356C352.506 106.828 351.498 106.564 350.01 106.564C349.122 106.564 348.246 106.744 347.382 107.104C346.542 107.464 345.834 107.932 345.258 108.508V121H341.334ZM369.059 127.336C367.787 127.336 366.515 127.252 365.243 127.084C363.971 126.94 362.891 126.712 362.003 126.4V123.376C362.963 123.688 364.067 123.928 365.315 124.096C366.563 124.264 367.751 124.348 368.879 124.348C370.607 124.348 371.867 124.252 372.659 124.06C373.451 123.868 373.847 123.436 373.847 122.764C373.847 122.26 373.655 121.9 373.271 121.684C372.887 121.492 372.155 121.396 371.075 121.396H366.467C363.371 121.396 361.823 120.304 361.823 118.12C361.823 117.424 362.027 116.776 362.435 116.176C362.843 115.576 363.491 115.12 364.379 114.808C363.395 114.328 362.663 113.668 362.183 112.828C361.727 111.988 361.499 110.98 361.499 109.804C361.499 107.62 362.147 106.036 363.443 105.052C364.763 104.068 366.731 103.576 369.347 103.576C369.899 103.576 370.475 103.624 371.075 103.72C371.675 103.792 372.143 103.864 372.479 103.936H378.743L378.635 106.492H375.755C376.211 106.876 376.547 107.356 376.763 107.932C376.979 108.508 377.087 109.132 377.087 109.804C377.087 111.628 376.535 113.068 375.431 114.124C374.327 115.156 372.659 115.672 370.427 115.672C370.043 115.672 369.683 115.66 369.347 115.636C369.035 115.588 368.687 115.54 368.303 115.492C367.583 115.564 366.935 115.756 366.359 116.068C365.783 116.38 365.495 116.8 365.495 117.328C365.495 117.688 365.639 117.952 365.927 118.12C366.215 118.264 366.695 118.336 367.367 118.336H372.155C373.859 118.336 375.167 118.708 376.079 119.452C377.015 120.172 377.483 121.228 377.483 122.62C377.483 124.3 376.751 125.5 375.287 126.22C373.847 126.964 371.771 127.336 369.059 127.336ZM369.347 113.188C370.907 113.188 371.987 112.924 372.587 112.396C373.211 111.868 373.523 110.968 373.523 109.696C373.523 108.424 373.211 107.5 372.587 106.924C371.987 106.348 370.907 106.06 369.347 106.06C367.883 106.06 366.815 106.336 366.143 106.888C365.471 107.44 365.135 108.376 365.135 109.696C365.135 110.92 365.447 111.808 366.071 112.36C366.719 112.912 367.811 113.188 369.347 113.188ZM396.065 121.36C394.889 121.36 393.761 121.276 392.681 121.108C391.625 120.94 390.749 120.736 390.053 120.496V117.184C390.869 117.496 391.769 117.736 392.753 117.904C393.737 118.072 394.673 118.156 395.561 118.156C396.905 118.156 397.865 118.036 398.441 117.796C399.017 117.556 399.305 117.088 399.305 116.392C399.305 115.888 399.125 115.492 398.765 115.204C398.429 114.916 397.913 114.652 397.217 114.412C396.545 114.172 395.681 113.884 394.625 113.548C393.617 113.212 392.741 112.852 391.997 112.468C391.253 112.06 390.677 111.544 390.269 110.92C389.861 110.296 389.657 109.48 389.657 108.472C389.657 106.912 390.221 105.712 391.349 104.872C392.477 104.008 394.289 103.576 396.785 103.576C397.769 103.576 398.705 103.648 399.593 103.792C400.481 103.936 401.237 104.116 401.861 104.332V107.608C401.189 107.344 400.445 107.14 399.629 106.996C398.837 106.852 398.093 106.78 397.397 106.78C396.149 106.78 395.201 106.888 394.553 107.104C393.929 107.32 393.617 107.752 393.617 108.4C393.617 109.072 393.941 109.552 394.589 109.84C395.261 110.104 396.329 110.476 397.793 110.956C399.137 111.364 400.205 111.796 400.997 112.252C401.789 112.708 402.353 113.26 402.689 113.908C403.049 114.532 403.229 115.348 403.229 116.356C403.229 118.036 402.617 119.296 401.393 120.136C400.169 120.952 398.393 121.36 396.065 121.36ZM414.721 121.36C411.649 121.36 409.393 120.592 407.953 119.056C406.537 117.52 405.829 115.324 405.829 112.468C405.829 109.612 406.549 107.416 407.989 105.88C409.429 104.344 411.673 103.576 414.721 103.576C417.793 103.576 420.049 104.344 421.489 105.88C422.929 107.416 423.649 109.612 423.649 112.468C423.649 115.324 422.929 117.52 421.489 119.056C420.073 120.592 417.817 121.36 414.721 121.36ZM414.721 118.048C416.521 118.048 417.793 117.616 418.537 116.752C419.305 115.864 419.689 114.436 419.689 112.468C419.689 110.5 419.305 109.084 418.537 108.22C417.793 107.356 416.521 106.924 414.721 106.924C412.945 106.924 411.673 107.356 410.905 108.22C410.161 109.084 409.789 110.5 409.789 112.468C409.789 114.436 410.161 115.864 410.905 116.752C411.673 117.616 412.945 118.048 414.721 118.048ZM435.639 121.36C432.567 121.36 430.311 120.592 428.871 119.056C427.455 117.52 426.747 115.324 426.747 112.468C426.747 109.612 427.467 107.416 428.907 105.88C430.347 104.344 432.591 103.576 435.639 103.576C438.711 103.576 440.967 104.344 442.407 105.88C443.847 107.416 444.567 109.612 444.567 112.468C444.567 115.324 443.847 117.52 442.407 119.056C440.991 120.592 438.735 121.36 435.639 121.36ZM435.639 118.048C437.439 118.048 438.711 117.616 439.455 116.752C440.223 115.864 440.607 114.436 440.607 112.468C440.607 110.5 440.223 109.084 439.455 108.22C438.711 107.356 437.439 106.924 435.639 106.924C433.863 106.924 432.591 107.356 431.823 108.22C431.079 109.084 430.707 110.5 430.707 112.468C430.707 114.436 431.079 115.864 431.823 116.752C432.591 117.616 433.863 118.048 435.639 118.048ZM448.385 121V103.936H451.985L452.165 105.736C452.933 105.136 453.845 104.632 454.901 104.224C455.981 103.792 457.169 103.576 458.465 103.576C460.673 103.576 462.281 104.092 463.289 105.124C464.297 106.156 464.801 107.764 464.801 109.948V121H460.913V110.128C460.913 108.808 460.637 107.884 460.085 107.356C459.557 106.828 458.549 106.564 457.061 106.564C456.173 106.564 455.297 106.744 454.433 107.104C453.593 107.464 452.885 107.932 452.309 108.508V121H448.385ZM468.838 115.204L468.622 103.612V97.816H472.546V103.612L472.33 115.204H468.838ZM468.478 121V118.048H472.654V121H468.478Z" fill="black"/>
<path d="M289.365 276.41C282.503 276.41 276.205 275.188 270.471 272.744C264.737 270.206 260.037 266.587 256.371 261.887L266.664 250.889C268.826 254.461 271.834 257.328 275.688 259.49C279.636 261.652 284.054 262.733 288.942 262.733C292.326 262.733 295.099 262.122 297.261 260.9C299.517 259.584 300.645 257.798 300.645 255.542C300.645 253.944 300.128 252.581 299.094 251.453C298.06 250.325 295.992 249.432 292.89 248.774L281.328 246.377C273.244 244.591 267.51 242.006 264.126 238.622C260.742 235.238 259.05 230.82 259.05 225.368C259.05 221.514 260.178 217.942 262.434 214.652C264.784 211.268 268.215 208.495 272.727 206.333C277.333 204.171 282.973 203.09 289.647 203.09C296.603 203.09 302.619 204.265 307.695 206.615C312.865 208.965 316.86 212.255 319.68 216.485L309.387 227.06C307.413 223.676 304.64 221.138 301.068 219.446C297.59 217.66 294.065 216.767 290.493 216.767C287.861 216.767 285.652 217.096 283.866 217.754C282.08 218.318 280.717 219.164 279.777 220.292C278.837 221.326 278.367 222.595 278.367 224.099C278.367 225.697 279.025 227.107 280.341 228.329C281.657 229.551 283.913 230.491 287.109 231.149L301.068 233.969C307.93 235.379 312.818 237.729 315.732 241.019C318.74 244.309 320.244 248.304 320.244 253.004C320.244 259.772 317.612 265.365 312.348 269.783C307.084 274.201 299.423 276.41 289.365 276.41ZM335.265 304.61V204.5H352.749L353.877 227.483L351.48 224.945C352.702 218.553 355.522 213.336 359.94 209.294C364.452 205.158 369.998 203.09 376.578 203.09C382.312 203.09 387.341 204.547 391.665 207.461C395.989 210.281 399.42 214.417 401.958 219.869C404.496 225.321 405.765 231.901 405.765 239.609C405.765 247.317 404.449 253.944 401.817 259.49C399.279 264.942 395.801 269.125 391.383 272.039C386.965 274.953 381.936 276.41 376.296 276.41C370.186 276.41 365.11 274.624 361.068 271.052C357.026 267.48 354.253 262.968 352.749 257.516L354.723 254.555V304.61H335.265ZM370.374 261.605C375.262 261.605 379.116 259.772 381.936 256.106C384.756 252.346 386.166 246.894 386.166 239.75C386.166 232.606 384.756 227.201 381.936 223.535C379.21 219.775 375.45 217.895 370.656 217.895C367.46 217.895 364.64 218.788 362.196 220.574C359.846 222.266 358.013 224.757 356.697 228.047C355.381 231.243 354.723 235.144 354.723 239.75C354.723 244.262 355.334 248.163 356.556 251.453C357.872 254.649 359.658 257.14 361.914 258.926C364.264 260.712 367.084 261.605 370.374 261.605ZM461.208 229.88C461.208 225.932 460.127 222.83 457.965 220.574C455.897 218.224 453.03 217.049 449.364 217.049C445.792 217.049 442.737 217.942 440.199 219.728C437.661 221.514 435.828 224.522 434.7 228.752L418.344 223.817C419.848 217.519 423.279 212.49 428.637 208.73C433.995 204.97 441.233 203.09 450.351 203.09C456.555 203.09 461.913 204.077 466.425 206.051C470.937 207.931 474.415 210.798 476.859 214.652C479.397 218.506 480.666 223.3 480.666 229.034V257.657C480.666 261.323 482.311 263.156 485.601 263.156C486.353 263.156 487.105 263.109 487.857 263.015C488.703 262.921 489.408 262.78 489.972 262.592L488.844 274.436C487.716 275 486.4 275.423 484.896 275.705C483.392 275.987 481.653 276.128 479.679 276.128C476.483 276.128 473.569 275.611 470.937 274.577C468.399 273.449 466.378 271.757 464.874 269.501C463.464 267.151 462.759 264.19 462.759 260.618V259.49L465.438 258.926C465.062 262.78 463.652 266.023 461.208 268.655C458.764 271.287 455.756 273.261 452.184 274.577C448.612 275.799 444.852 276.41 440.904 276.41C434.136 276.41 428.59 274.765 424.266 271.475C420.036 268.185 417.921 263.391 417.921 257.093C417.921 252.111 419.472 247.928 422.574 244.544C425.676 241.16 430.423 238.81 436.815 237.494L463.323 231.854V243.275L447.108 246.659C443.912 247.317 441.468 248.304 439.776 249.62C438.084 250.936 437.238 252.863 437.238 255.401C437.238 257.845 438.084 259.725 439.776 261.041C441.562 262.357 443.818 263.015 446.544 263.015C448.424 263.015 450.257 262.78 452.043 262.31C453.829 261.746 455.38 260.9 456.696 259.772C458.106 258.55 459.187 257.093 459.939 255.401C460.785 253.615 461.208 251.5 461.208 249.056V229.88ZM565.917 204.5L538.704 278.948C536.448 285.246 533.957 290.322 531.231 294.176C528.599 298.03 525.403 300.85 521.643 302.636C517.977 304.422 513.559 305.315 508.389 305.315C504.723 305.315 501.386 304.892 498.378 304.046C495.37 303.2 492.738 302.025 490.482 300.521L494.712 286.703C496.31 288.113 498.049 289.1 499.929 289.664C501.903 290.228 504.159 290.51 506.697 290.51C509.799 290.51 512.196 289.852 513.888 288.536C515.58 287.22 516.99 285.058 518.118 282.05L520.515 275.987L512.76 257.516L491.751 204.5H513.324L526.155 247.223L529.68 261.041L533.769 246.377L546.318 204.5H565.917ZM647.289 204.5L615.282 238.763L611.475 240.314L591.03 262.874L590.889 242.288L625.152 204.5H647.289ZM595.965 173.762V275H576.507V173.762H595.965ZM617.961 226.919L648.84 275H626.985L604.707 238.34L617.961 226.919Z" fill="black"/>
<path d="M151 292.033L151 201.967L229 247L151 292.033Z" stroke="black" stroke-width="7"/>
<path d="M97 292.033L97 201.967L175 247L97 292.033Z" fill="#D2FC7E" stroke="black" stroke-width="7"/>
<line x1="54" y1="145" x2="54" y2="175" stroke="black" stroke-width="6"/>
<line x1="51" y1="148" x2="81" y2="148" stroke="black" stroke-width="6"/>
<line x1="701" y1="336" x2="701" y2="306" stroke="black" stroke-width="6"/>
<line x1="704" y1="333" x2="674" y2="333" stroke="black" stroke-width="6"/>
</svg>
